<svg xmlns="http://www.w3.org/2000/svg" width="539" height="80" viewBox="0 0 539 80" fill="none"><path d="M397.791 65.077H388.061V43.1508C388.061 40.9662 387.323 35.7231 380.984 35.7231C376.64 35.7231 373.618 38.9293 373.618 43.1508V65.077H363.815V43.1508C363.815 40.9662 363.151 35.7231 356.738 35.7231C352.461 35.7231 349.44 38.9293 349.44 43.1508V65.077H339.637V27.5631H348.997V31.2062C351.354 28.3631 354.671 26.6154 358.8 26.6154C363.514 26.6154 367.495 28.5846 370.148 31.9323C372.874 28.6523 376.855 26.6154 381.717 26.6154C391.883 26.6154 397.778 33.317 397.778 43.1508V65.077H397.791Z" fill="white"></path><path d="M412.302 65.077H402.572V27.5631H412.302V65.077Z" fill="white"></path><path d="M451.188 65.077H441.458V43.1508C441.458 40.9662 440.794 35.7231 434.381 35.7231C430.031 35.7231 427.015 38.9293 427.015 43.1508V65.077H417.286V27.5631H426.572V31.2062C429.003 28.3631 432.32 26.6154 436.375 26.6154C445.292 26.6154 451.188 33.2431 451.188 43.1508V65.077Z" fill="white"></path><path d="M511.747 65.9508C503.089 65.9508 496.677 60.9231 495.618 52.837H504.474C505.661 56.0431 509.169 57.2062 511.747 57.2062C515.249 57.2062 517.895 56.0431 517.895 53.8585C517.895 51.6739 516.707 50.8739 510.757 49.8523C504.677 48.8308 496.541 47.0093 496.541 38.6339C496.541 32.7323 501.237 26.6154 511.083 26.6154C518.886 26.6154 524.701 31.28 525.827 38.3446H516.769C516.24 36.597 514.326 35.2123 511.083 35.2123C507.052 35.2123 505.397 36.8123 505.397 38.197C505.397 40.1662 507.907 40.8185 512.141 41.5446C520.603 43.077 526.683 45.1139 526.683 53.2739C526.683 60.7016 520.467 65.9508 511.741 65.9508H511.747Z" fill="white"></path><path d="M482.966 16.0616V31.1262C480.018 28.357 476.184 26.757 471.766 26.757C461.889 26.757 453.71 35.2062 453.71 46.3508C453.71 57.4954 461.889 65.8708 471.766 65.8708C476.184 65.8708 480.006 64.2831 482.966 61.4893V65.0647H492.695V14.3323L482.966 16.0677V16.0616ZM473.237 56.9908C467.858 56.9908 463.507 52.4 463.507 46.4308C463.507 40.4616 467.852 35.6493 473.237 35.6493C478.621 35.6493 482.966 40.4554 482.966 46.4308C482.966 52.4062 478.621 56.9908 473.237 56.9908Z" fill="white"></path><path d="M34.554 49.4216V21.7416C33.0032 20.4431 32.2832 19.84 30.7324 18.5416L24.3755 19.6739V47.3539C25.9263 48.6523 26.6463 49.2554 28.197 50.5539L34.554 49.4216Z" fill="white"></path><path d="M36.9727 17.4277V45.1077C38.5234 46.4062 39.2434 47.0093 40.7942 48.3077L47.1511 47.1754V19.4954C45.6004 18.1969 44.8804 17.5939 43.3296 16.2954L36.9727 17.4277Z" fill="white"></path><path d="M55.9263 14.0493L49.5693 15.1816V42.8616C51.1201 44.16 51.8401 44.7631 53.3909 46.0616L59.7478 44.9293V17.2493C58.197 15.9508 57.477 15.3477 55.9263 14.0493Z" fill="white"></path><path d="M250.591 26.6154C239.908 26.6154 231.139 35.5016 231.139 46.357C231.139 57.2123 239.908 65.9508 250.591 65.9508C260.025 65.9508 266.726 60.7816 268.942 53.1323H258.554C256.936 56.117 253.766 57.5016 250.523 57.5016C245.957 57.5016 242.271 54.6585 241.016 50.0739H269.68C271.077 35.2123 261.797 26.6216 250.597 26.6216L250.591 26.6154ZM241.157 42.2031C242.554 37.8339 246.093 35.0646 250.517 35.0646C255.157 35.0646 258.843 37.8339 260.025 42.2031H241.163H241.157Z" fill="#4081BE"></path><path d="M111.046 65.0708H101.317V27.5631H111.046V65.077V65.0708Z" fill="#4081BE"></path><path d="M174.591 65.0708H164.862V43.1446C164.862 40.96 164.123 35.717 157.785 35.717C153.44 35.717 150.419 38.9231 150.419 43.1446V65.0708H140.615V43.1446C140.615 40.96 139.951 35.717 133.539 35.717C129.262 35.717 126.24 38.9231 126.24 43.1446V65.0708H116.437V27.5631H125.797V31.2062C128.154 28.3631 131.471 26.6154 135.6 26.6154C140.314 26.6154 144.295 28.5846 146.948 31.9323C149.674 28.6523 153.655 26.6154 158.517 26.6154C168.683 26.6154 174.579 33.317 174.579 43.1508V65.077L174.591 65.0708Z" fill="#4081BE"></path><path d="M189.206 65.0708H179.477V27.5631H189.206V65.077V65.0708Z" fill="#4081BE"></path><path d="M214.505 65.0031C203.379 66.1662 197.483 59.5385 197.483 49.2677V36.0862H192.917V27.5631H197.483V19.7539L207.212 18.0185V27.5631H214.068V36.0862H207.212V49.3416C207.212 54.5846 209.643 56.5539 214.511 56.2585V64.997L214.505 65.0031Z" fill="#4081BE"></path><path d="M227.459 65.0708H217.729V16.0616L227.459 14.3262V65.0708Z" fill="#4081BE"></path><path d="M95.4094 65.0708H85.6802V16.0616L95.4094 14.3262V65.0708Z" fill="#4081BE"></path><path d="M288.037 65.9508C279.378 65.9508 272.966 60.9231 271.908 52.837H280.763C281.951 56.0431 285.458 57.2062 288.037 57.2062C291.538 57.2062 294.185 56.0431 294.185 53.8585C294.185 51.6739 292.997 50.8739 287.046 49.8523C280.966 48.8308 272.831 47.0093 272.831 38.6339C272.831 32.7323 277.526 26.6154 287.372 26.6154C295.175 26.6154 300.991 31.28 302.117 38.3446H293.058C292.529 36.597 290.609 35.2123 287.372 35.2123C283.342 35.2123 281.686 36.8123 281.686 38.197C281.686 40.1662 284.197 40.8185 288.431 41.5446C296.892 43.077 302.972 45.1139 302.972 53.2739C302.972 60.7016 296.757 65.9508 288.031 65.9508H288.037Z" fill="#4081BE"></path><path d="M321.367 65.9508C312.708 65.9508 306.296 60.9231 305.237 52.837H314.093C315.28 56.0431 318.788 57.2062 321.367 57.2062C324.868 57.2062 327.514 56.0431 327.514 53.8585C327.514 51.6739 326.327 50.8739 320.376 49.8523C314.296 48.8308 306.16 47.0093 306.16 38.6339C306.16 32.7323 310.856 26.6154 320.702 26.6154C328.505 26.6154 334.32 31.28 335.447 38.3446H326.388C325.859 36.597 323.945 35.2123 320.702 35.2123C316.671 35.2123 315.016 36.8123 315.016 38.197C315.016 40.1662 317.527 40.8185 321.76 41.5446C330.222 43.077 336.302 45.1139 336.302 53.2739C336.302 60.7016 330.087 65.9508 321.36 65.9508H321.367Z" fill="#4081BE"></path><path d="M21.9509 51.6677V23.9816C20.4002 22.6831 19.6802 22.08 18.1294 20.7816L11.7725 21.9139V49.5939C13.3232 50.8923 14.0432 51.4954 15.594 52.7939L21.9509 51.6616V51.6677Z" fill="#4081BE"></path><path d="M11.7725 55.92V61.6123C13.6063 63.1508 14.4617 63.8646 16.2955 65.4031L34.5602 62.1477V56.4554C32.7263 54.9169 31.8709 54.2031 30.0371 52.6646L11.7725 55.92Z" fill="#4081BE"></path></svg>