<?xml version="1.0" encoding="UTF-8"?>
<svg width="96px" height="26px" viewBox="0 0 96 26" version="1.1" xmlns="http://www.w3.org/2000/svg" xmlns:xlink="http://www.w3.org/1999/xlink">
    <title>logo-neou</title>
    <g id="Symbols" stroke="none" stroke-width="1" fill="none" fill-rule="evenodd">
        <g id="top-bar" transform="translate(-24.000000, -15.000000)" fill="#FFFFFF">
            <g id="logos" transform="translate(24.000000, 15.500000)">
                <g id="Group" transform="translate(-0.000000, 0.000000)">
                    <g id="logo/neou" transform="translate(-0.000000, 0.000000)">
                        <path d="M95.0303395,12.8450943 C95.0303395,17.1297642 92.4928571,19.9858962 90.36438,21.6271698 C88.2323668,23.2712736 86.0737152,24.0587736 85.7349599,24.1766981 L85.7333098,24.1733962 L85.6856907,24.1925 C84.5888025,24.6311792 83.4058699,24.8538208 82.1698963,24.8538208 C81.6196841,24.8538208 81.0579208,24.8083019 80.4999293,24.7189151 C75.0416549,23.8446226 70.6008251,18.7132547 70.6008251,13.28 L70.6008251,1.95665094 L72.3731023,1.95665094 L72.3731023,13.28 C72.3731023,17.8875472 76.145851,22.2399057 80.782579,22.9828302 C81.247454,23.0573585 81.7139793,23.0950943 82.1698963,23.0950943 C83.9919142,23.0950943 85.6533946,22.5047642 86.9749411,21.3880189 C88.6083687,20.0075943 89.5074729,17.9906132 89.5072372,15.708066 L89.5072372,3.20665094 L87.5291608,2.54674528 L87.5291608,15.708066 C87.5291608,17.4061792 86.8766384,18.8925 85.6920556,19.8934434 C84.4815417,20.9163208 82.8502357,21.325283 81.0977605,21.0448585 C77.3778171,20.4491038 74.3514144,16.9656132 74.3514144,13.28 L74.3514144,1.9420283 L79.874281,0.10004717 L79.874281,11.2755189 C79.874281,14.4259906 81.9376945,16.7925 85.1307638,17.3040566 C85.2071429,17.3160849 85.282579,17.3241038 85.3582508,17.3321226 L85.4355728,17.3403774 L85.4499529,17.305 C85.6538661,16.8203302 85.7568835,16.2833019 85.7568835,15.708066 L85.7568835,0.10004717 L91.2795144,1.9420283 L91.2795144,15.708066 C91.2795144,16.7427358 91.1262848,17.7446226 90.8245403,18.6856604 L90.7521688,18.9123113 L90.9119991,18.7351887 C92.4685761,17.014434 93.2578265,15.0325943 93.2578265,12.8450943 L93.2578265,1.95665094 L95.0303395,1.95665094 L95.0303395,12.8450943 Z M56.1380717,24.3708019 C49.582909,24.3708019 44.2498114,19.0351887 44.2498114,12.476934 C44.2498114,5.91867925 49.582909,0.583066038 56.1380717,0.583066038 C62.6932343,0.583066038 68.0260962,5.91867925 68.0260962,12.476934 C68.0260962,19.0351887 62.6932343,24.3708019 56.1380717,24.3708019 L56.1380717,24.3708019 Z M40.7700849,3.25287736 L27.0619283,3.25287736 L27.0619283,11.0568868 L40.7700849,11.0568868 L40.7700849,13.4262264 L27.0619283,13.4262264 L27.0619283,21.7825943 L40.7700849,21.7825943 L40.7700849,24.1516981 L24.6939415,24.1516981 L24.6939415,3.23165094 L27.0607496,3.23165094 L27.0607496,0.883773585 L40.7700849,0.883773585 L40.7700849,3.25287736 Z M21.13595,23.601934 L19.0475483,24.3660849 L2.36815182,4.605 L2.36815182,24.184717 L-7.07213578e-05,24.184717 L-7.07213578e-05,1.36632075 L2.08856671,0.601933962 L18.7679632,20.3630189 L18.7679632,0.939669811 L21.13595,0.939669811 L21.13595,23.601934 Z M56.1380717,2.95240566 C50.888661,2.95240566 46.6177982,7.22504717 46.6177982,12.476934 C46.6177982,17.7288208 50.888661,22.0016981 56.1380717,22.0016981 C61.3874823,22.0016981 65.6581094,17.7288208 65.6581094,12.476934 C65.6581094,7.22504717 61.3874823,2.95240566 56.1380717,2.95240566 L56.1380717,2.95240566 Z M78.101768,11.2755189 L78.101768,2.54674528 L76.1236917,3.20641509 L76.1236917,13.28 C76.1236917,16.0913208 78.5310467,18.8524057 81.3801744,19.3085377 C81.6446723,19.3507547 81.90752,19.372217 82.1614097,19.372217 L82.1616455,19.372217 C82.8162895,19.372217 83.4181282,19.2304717 83.9501886,18.950283 L84.0690005,18.8875472 L83.938166,18.8554717 C81.2757426,18.201934 78.101768,16.3566509 78.101768,11.2755189 L78.101768,11.2755189 Z"></path>
                    </g>
                </g>
            </g>
        </g>
    </g>
</svg>